<?xml version="1.0" encoding="UTF-8"?>
<svg enable-background="new 0 0 91.5 32.5" version="1.1" viewBox="0 0 91.5 32.5" xml:space="preserve" xmlns="http://www.w3.org/2000/svg">
<style type="text/css">
	.st0{fill:#FFFFFF;}
	.st1{fill:#DA1F26;}
	.st2{fill:#DD2228;}
</style>
		<path class="st0" d="m19.4 27.9l-0.1 0.1v0.1c0.1 0 0.1 0.1 0 0.1 0 0.1-0.1 0.1-0.1 0.2-0.1 0-0.1-0.1-0.2 0 0 0.1-0.2 0.1-0.1 0.2-0.1 0-0.2 0.1-0.2 0.3v0.2 0.2l-0.3 0.3-0.2 0.2-0.1 0.1c0 0.1 0 0.1-0.1 0.1v0.1 0.1l-0.1 0.1c-0.3 0.2-0.4 0.2-0.8 0.5l-0.1 0.1-0.1 0.1c-0.2-0.1-0.2-0.3-0.2-0.4l0.1-0.1c-0.1-0.1-0.2-0.1-0.3-0.2 0-0.2-0.2-0.1-0.3-0.2 0.2-0.1 0.1-0.2 0.1-0.4 0.1-0.1 0.1-0.1 0-0.3l-0.2-0.2c0.1-0.1 0.1-0.2 0.2-0.3s0.1-0.3 0.1-0.4v-0.1c-0.1-0.1-0.1-0.2-0.1-0.3v-0.4c0-0.2 0-0.4 0.1-0.7v-0.2c0-0.1-0.1-0.1-0.2-0.1 0 0-0.1 0.1-0.2 0.1 0-0.1-0.1-0.2-0.1-0.3 0-0.3 0-0.6-0.1-0.9v-0.5c0-0.2 0-0.3 0.1-0.5 0.1-0.1 0.1-0.3 0.1-0.5v-0.7-0.3-0.1c0-0.1-0.3-0.2-0.4-0.2h-0.2-0.3c-0.1 0-0.3 0.1-0.4 0.2-0.1 0-0.2-0.1-0.2-0.1-0.3-0.2-0.6-0.2-1-0.2s-0.8 0.1-1.3 0.2h-0.4s0-0.1-0.1-0.1c0 0-0.1-0.1-0.1 0l-0.1 0.1v0.1c-0.1-0.1-0.3-0.1-0.4 0h-0.1c-0.1 0-0.3 0-0.3-0.1-0.1-0.1-0.1-0.1-0.1 0 0 0 0 0.1-0.1 0.2h-0.3c-0.3 0-0.6 0.1-0.8 0.1h-0.3-0.2c-0.1-0.1-0.3-0.2-0.4-0.3-0.1 0-0.1-0.1-0.2 0-0.2 0.1-0.4 0.1-0.5 0.2h-0.1l-0.3-0.9v-0.3c0-0.3 0-0.6-0.1-0.8 0-0.2 0-0.3 0.1-0.5v-0.1c-0.1-0.1 0-0.2 0-0.3 0.1 0 0.1-0.1 0.1-0.2s-0.1-0.1-0.1-0.2l-0.1-0.1c0-0.1 0.1-0.1 0.1-0.2h0.1c0.1-0.1-0.1-0.2-0.1-0.4 0.1 0 0.2-0.1 0.3-0.1s0.2-0.1 0.2-0.2v-0.1c-0.1-0.2 0-0.4 0.1-0.6 0.1-0.1 0.2-0.3 0.3-0.4v-0.2c-0.1-0.1-0.2 0-0.3-0.1 0-0.1 0-0.1 0.1-0.2 0.1-0.3 0.2-0.6 0.4-0.9 0-0.1 0.1-0.1 0.2-0.2l0.3-0.3c0.1-0.2 0.2-0.4 0.2-0.5-0.2 0.3-0.2 0.1-0.1 0 0-0.1 0.1-0.2 0.2-0.3 0.2-0.2 0.4-0.4 0.5-0.6 0.3-0.4 0.5-0.9 0.6-1.4 0.2-0.4 0.3-0.9 0.5-1.3l0.1-0.1c0.1-0.1 0.2-0.2 0.3-0.2l0.1-0.1c0-0.1 0.1-0.3 0.2-0.4 0.1-0.3 0.2-0.5 0.2-0.8v-0.1c0.2-0.1 0.2-0.2 0.3-0.3l0.1-0.1c0.2-0.1 0.2-0.2 0.3-0.3 0.2-0.3 0.4-0.6 0.5-0.9 0.2-0.4 0.3-0.8 0.5-1.2 0.1-0.2 0.1-0.3 0.2-0.5v-0.1h0.1s0.1 0 0.1-0.1c0 0 0-0.1-0.1-0.1l-0.1-0.1c0.3 0 0.4-0.3 0.5-0.5s0.2-0.4 0.4-0.4c0.1 0 0.1-0.1 0-0.1 0-0.1-0.1-0.1-0.1-0.2 0.1-0.2 0.2-0.5 0.3-0.7 0.2-0.4 0.3-0.7 0.5-1.1 0-0.1 0.1-0.1 0.1-0.1 0.2-0.1 0.4-0.3 0.5-0.4s0.1-0.2 0.1-0.3c0-0.2 0.1-0.3 0.1-0.5 0-0.1 0.1-0.2 0.1-0.4 0.1 0 0.3 0 0.4 0.1 0.2 0 0.4 0 0.5 0.1h0.2c0.4 0.1 0.7 0.2 1 0.3h0.1c0.1 0 0.2 0 0.3 0.1 0.3 0.2 0.6 0.3 0.9 0.5-0.1 0.1-0.1 0.3 0 0.4v0.2c0 0.1 0 0.2-0.1 0.2s-0.1 0.1 0 0.2c0 0.1 0.1 0.1 0.1 0.2 0.1 0.1 0.1 0.1 0 0.2s-0.1 0.1 0 0.2c0 0.1 0.1 0.1 0.1 0.2l0.1 0.1s-0.1 0-0.1 0.1c-0.1 0.1-0.1 0.2 0 0.3 0.1 0 0.1 0.1 0.2 0.1 0.1-0.1 0.1-0.1 0.1 0-0.1 0.1-0.1 0.3-0.1 0.4s0 0.1 0.1 0.2v0.1 1.1 0.6c0 0.1 0 0.1-0.1 0.2v0.3h0.1c0.1 0.1 0.1 0.1 0.2 0.1s0.1 0.1 0 0.1h-0.1c-0.1 0-0.2 0.1-0.1 0.3s0.1 0.4 0.1 0.5-0.1 0.2-0.1 0.3c0 0.2 0 0.3 0.1 0.4 0 0.1 0.1 0.1 0 0.2v0.1h0.2c0 0.1 0 0.1 0.1 0.2h-0.1c-0.2 0-0.2 0.1-0.2 0.2s0 0.1 0.1 0.1h0.1c-0.1 0.1-0.1 0.3-0.1 0.4v0.2c-0.1 0.1-0.1 0.1 0 0.2-0.1 0.1 0 0.3 0 0.4s0.1 0.1 0.1 0.2 0 0.2-0.1 0.3-0.1 0.1-0.1 0.2c0.1 0.3 0.2 0.7 0.3 1 0.1 0.2 0.1 0.4 0 0.6 0 0.1-0.1 0.1-0.1 0.1-0.1 0.1-0.2 0.2-0.1 0.4 0 0.1 0.1 0.2 0.1 0.3s0 0.1 0.1 0.2h-0.1c-0.1 0-0.1 0.1-0.1 0.2v0.2s0.1 0 0.1 0.1c0 0 0 0.1-0.1 0.1l-0.1 0.1v0.3h-0.1s-0.1 0 0 0.1v0.2c-0.1 0.1-0.1 0.1 0 0.2 0 0 0.1 0 0.1 0.1 0 0 0 0.1 0.1 0.1 0 0 0 0.1-0.1 0.1-0.1 0.1 0 0.3 0.1 0.3h0.3 0.1c-0.1 0-0.1 0.1-0.1 0.1 0 0.1-0.1 0.2-0.2 0.2s-0.2 0.1-0.3 0.2v0.1 0.1c-0.1 0.1-0.1 0.1-0.1 0.2s0.1 0.3 0.1 0.4 0.1 0.1 0.1 0.2 0 0.2-0.1 0.2-0.1 0.1-0.1 0.1v0.2s0 0.1 0.1 0.1h-0.1v0.1c-0.1 0.1-0.2 0.2-0.1 0.3 0 0.1 0.1 0.1 0.2 0.1 0 0.1 0.1 0.1 0.3 0.1 0.1 0 0.4 0.1 0.4 0.2h-0.2v0.1 0.1c0 0.1 0 0.2 0.1 0.2h0.1v-0.1-0.1c0 0.1 0 0.1 0.1 0.2 0 0.1 0 0.1 0.1 0.1s0.1 0 0.1 0.1 0.1 0.1 0.1 0.1c0.1 0 0-0.1 0-0.1 0-0.1 0-0.2-0.1-0.2v-0.2h0.2s0 0.1 0.1 0.1 0.1 0 0.1-0.1v-0.4h0.1l0.2 0.2s0.1 0.1 0.2 0c0.1 0.1 0.1 0 0.2-0.1l0.1 0.1v0.1c0 0.1 0 0.2 0.1 0.2l0.1 0.1c0.1 0.1 0.1 0.1 0.3 0.1h0.1c0.1 0.1 0.1 0.2 0.2 0.2 0.1 0.1 0.1 0.2 0.2 0.3 0.1 0 0.1 0.1 0.2 0.1l0.1 0.1v0.2c0.1 0.1 0.1 0.3 0.2 0.4s0.1 0.2 0.2 0.4l-0.2 0.2c-0.1-0.1-0.2 0-0.2 0.1l-0.1 0.1s-0.1 0.1-0.1 0.2h-0.1s-0.1 0-0.1 0c0-0.1-0.1-0.1-0.1 0s-0.1 0.1-0.1 0.2c-0.1-0.1-0.2-0.1-0.3-0.2s-0.2-0.1-0.2 0c-0.1 0.2-0.3 0.2-0.5 0.1h-0.3-0.1c-0.1 0-0.1 0.1 0 0.1 0 0.1 0.1 0.1 0.1 0.2-0.1 0-0.3 0.1-0.4 0.1h-0.5c-0.1 0-0.2 0-0.3-0.1s-0.2-0.1-0.4-0.1c-0.1 0-0.1 0-0.1 0.1-0.1 0.2-0.1 0.4-0.1 0.6v0.1c-0.1 0-0.1 0.1-0.2 0.1v-0.3c0-0.1 0-0.1-0.1-0.1s-0.2 0-0.3 0.2c0 0.1 0 0.1 0.2 0.1v0.1 0.1 0.4c0 0.1 0.1 0.1 0.1 0.2-0.1 0-0.1 0.1-0.2 0.2 0-0.1-0.1 0-0.1 0s-0.1 0.1-0.2 0.1c-0.1 0.1-0.1 0.1 0 0.2 0 0 0.1 0 0.1 0.1-0.1 0.2-0.2 0.2-0.4 0.3 0.1 0.1 0 0.2-0.1 0.3l-0.1 0.1v0.1c0.2 0 0.4-0.1 0.6-0.2 0 0.1-0.1 0.3-0.1 0.4l-0.1 0.1c0 0.1 0.1 0.1 0 0.2v0.1h0.2 0.4v0.2c-0.1 0.1-0.1 0.2-0.2 0.3 0 0 0 0.1-0.1 0.1 0.1 0.6 0.1 0.6 0.2 0.6zm-4.5-14.4c-0.1 0.1-0.2 0.1-0.3 0.1-0.2-0.1-0.3-0.1-0.4 0.1h-0.1c-0.1 0.1-0.1 0.3 0 0.4v0.1c0 0.1 0 0.2-0.2 0.2-0.1 0-0.1 0-0.2 0.1v0.2h-0.1-0.1c-0.1 0-0.1 0.1-0.1 0.1 0 0.1 0 0.2 0.1 0.2 0.2 0.1 0.3 0.2 0.5 0.3 0 0 0.1 0 0.1 0.1h-0.1c-0.1 0 0 0.1-0.1 0.1h-0.1s-0.1 0-0.1 0c-0.1 0-0.2 0.1-0.2 0.2v0.1 0.1c-0.1 0-0.2 0-0.3-0.1h-0.1v0.1l0.1 0.1c0 0.1-0.1 0.1 0 0.2-0.2 0.1-0.1 0.3 0 0.4h-0.1c0 0.1 0 0.1 0.1 0.1-0.2 0-0.3 0.1-0.4 0.2 0 0-0.1 0.1-0.2 0.1s-0.1 0.1-0.1 0.2v0.1c-0.2 0.1-0.4 0.3-0.4 0.5h-0.2c0-0.1 0-0.1 0.1-0.2v-0.1c-0.1-0.1-0.2-0.1-0.3 0 0 0-0.1 0-0.1 0.1l0.1 0.1c-0.1 0.1-0.1 0.1-0.1 0.2s-0.1 0.1-0.1 0.2v0.2c-0.1 0-0.2 0.1-0.3 0h-0.2-0.1v0.1l0.1 0.1c-0.1 0.1-0.3 0-0.4 0 0 0.1-0.1 0.1-0.1 0.1h-0.2s-0.1 0-0.1 0.1c0 0 0 0.1 0.1 0.1s0.2 0 0.3 0.1h0.1c-0.1 0.1-0.1 0.2-0.2 0.2h-0.1v0.1c-0.1 0.1-0.1 0.1 0 0.2s0.2 0.1 0.3 0.2l0.1 0.1c-0.1 0-0.1 0.1-0.2 0.1s-0.1 0-0.2 0.1c0 0-0.1 0-0.1 0.1v0.1l-0.1 0.1c0 0.1 0 0.1 0.1 0.1s0.1-0.1 0.1-0.2c0 0.1 0 0.1 0.1 0.2 0 0.1 0.1 0.1 0.1 0.1s0.1 0 0.1-0.1c0.1-0.1 0.2-0.1 0.3 0 0 0 0.1 0 0.1 0.1h0.3c0.1-0.1 0.1-0.1 0.2-0.1s0-0.2 0.1-0.2v0.1c0 0.1 0 0.1 0.1 0.1s0.1 0 0.1-0.1v-0.1c0.1 0.1 0.2 0.1 0.3 0.1h0.1 0.1s0-0.1 0.1-0.1c0.2 0.1 0.3-0.1 0.4-0.1l0.1 0.1c0.1 0.1 0.1 0.1 0.2 0 0.2-0.1 0.4-0.2 0.5-0.3s0.2 0 0.3 0 0.1 0.1 0.1 0.1c0.1 0.1 0.2 0.2 0.3 0.1 0.1 0 0.1-0.1 0.2-0.1 0 0.2 0.1 0.3 0.3 0.2v-0.1h0.2s0.1 0 0.1 0.1c0 0 0 0.1 0.1 0.1s0.1 0 0.1 0.1c0.1 0.1 0.1 0 0.1 0l0.1-0.1 0.1 0.1c0.1-0.1 0.1-0.1 0.1-0.2v-0.3s0.1 0 0.1 0.1v0.2c0 0.1 0.1 0.2 0.1 0.2h0.1v-0.1c0-0.3-0.1-0.5-0.1-0.8 0-0.4 0-0.9-0.1-1.3v-0.1c0-0.1 0.1-0.2 0.1-0.3 0.1-0.2 0.1-0.4 0-0.5v-0.3c0-0.3 0-0.7-0.1-1 0-0.1-0.1-0.2-0.2-0.3 0.1-0.1 0.1-0.2 0.1-0.3s0-0.2 0.1-0.3 0.1-0.3 0.1-0.4c0-0.2 0.1-0.5 0.1-0.7v-1.3c0-0.3 0-0.6-0.1-0.9v-0.3s0-0.1-0.1-0.1h-0.1s0 0.1-0.1 0.1c-0.1 0.1-0.2 0.2-0.3 0.1h-0.2c-0.1 0.1-0.1 0.2-0.1 0.3v0.3c-0.2-0.1-0.2-0.1-0.3 0.1v0.1c0.1 0.1 0.1 0.1 0 0.1s-0.1 0-0.1 0.1c0 0-0.1 0.1-0.1 0.2 0 0-0.1-0.1-0.1 0s-0.1 0.1-0.2 0.1-0.1 0.1 0 0.1c0.1 0.1 0 0.1 0 0.2h-0.1c-0.1 0-0.2 0-0.2 0.1s0.1 0.1 0.1 0.2c0.7 0 0.8 0 0.8 0.1zm1.4-3.3c0.1 0 0.1 0 0.1-0.1 0 0 0-0.1-0.1-0.1h-0.1c0.1 0.1 0.1 0.2 0.1 0.2zm-6.1 10.1c0.1 0.1 0.2 0 0.2 0v-0.1c-0.1 0-0.1 0-0.2 0.1v0z"/>
				<path class="st1" d="m17.1 31.2v0h0.3c0.1 0 0.1 0 0.1-0.1 0.1-0.1 0.2-0.1 0.3 0h0.1 0.1c0.1 0 0.3 0 0.4-0.1s0.2-0.1 0.3-0.2c0 0-0.1-0.1-0.1-0.2-0.1-0.1-0.2-0.3 0-0.4-0.1 0-0.2 0-0.2-0.1l-0.2 0.2c0 0.1-0.1 0.1-0.2 0.2 0 0-0.1 0-0.1 0.1-0.1 0.1-0.2 0.1-0.3 0.2-0.3 0.2-0.4 0.3-0.5 0.4zm-9.2-26.5c0.1 0 0.3-0.1 0.3-0.2 0.1 0 0.2-0.1 0.3-0.1-0.1 0-0.1 0-0.2-0.1 0 0.1-0.2 0.2-0.4 0.4z"/>
				<path class="st1" d="m0 15.3c0-0.1 0.1-0.2 0.1-0.3v-0.2-0.1-0.5-0.2-0.4c0-0.1 0-0.1 0.1-0.2 0.1-0.3 0.1-0.5 0.2-0.8v-0.2c0-0.1 0.1-0.1 0.1-0.2 0-0.2 0.1-0.4 0.1-0.5s0.1-0.2 0.1-0.3c0.1-0.3 0.2-0.4 0.3-0.6 0-0.1 0-0.2 0.1-0.3 0.1-0.2 0.1-0.3 0.2-0.5 0-0.2 0.1-0.3 0.2-0.5 0.1-0.1 0.2-0.3 0.3-0.5 0 0 0-0.1 0.1-0.1 0-0.2 0.1-0.3 0.2-0.4s0.1-0.2 0.2-0.3c0-0.1 0.1-0.2 0.1-0.2 0.1-0.1 0.1-0.2 0.2-0.3s0.1-0.2 0.2-0.3c0 0 0-0.1 0.1-0.1 0-0.1 0.1-0.2 0.1-0.2 0.1-0.2 0.3-0.3 0.4-0.5 0-0.1 0.1-0.1 0.1-0.2l0.3-0.3s0.1 0 0.1-0.1l0.1-0.1 0.3-0.3c0.1-0.1 0.2-0.1 0.3-0.2 0 0 0.1-0.1 0.2-0.1l0.4-0.4s0.1 0 0.1-0.1c0 0 0.1 0 0.1-0.1 0.1-0.1 0.2-0.1 0.3-0.2 0.1 0 0.2-0.1 0.3-0.2 0.2-0.1 0.4-0.2 0.6-0.2 0.1 0.1 0.2 0 0.3-0.1 0.1 0 0.1 0.1 0.1 0.2-0.1 0-0.2 0-0.3 0.1 0 0.1-0.1 0.1-0.1 0.1-0.3 0-0.4 0.2-0.5 0.4v0.1 0.3c0 0.1-0.1 0.1-0.1 0.2-0.1 0-0.1 0.1-0.1 0.1 0 0.1-0.1 0.2-0.2 0.2s-0.1 0.1-0.1 0.1-0.1 0.1 0 0.1v0.1c-0.2 0.3-0.3 0.3-0.4 0.4 0 0 0 0.1-0.1 0.1 0 0-0.1 0.1-0.1 0.2 0 0-0.1 0.1-0.1 0.2-0.1 0.1-0.2 0.1-0.1 0.2 0 0.1-0.1 0.1-0.1 0.2-0.1 0-0.2 0.1-0.2 0.1-0.1 0 0 0.1 0 0.1 0 0.1-0.1 0.1-0.1 0.2v0.1c0.1 0 0 0.1 0 0.1-0.2 0.2-0.2 0.4-0.3 0.5s-0.1 0.3-0.1 0.4 0 0.2-0.1 0.3c0 0.1-0.1 0.3-0.2 0.4 0 0.1-0.1 0.2-0.1 0.3s-0.1 0.2-0.1 0.3v0.1 0.2c-0.1 0.1-0.1 0.2-0.1 0.3v0.2c0 0.2 0 0.4-0.1 0.6 0 0.1-0.1 0.1-0.1 0.2v0.1c-0.2 0.1-0.2 0.3-0.2 0.4s-0.1 0.3-0.1 0.4v0.3c0 0.1-0.1 0.1-0.1 0.2v0.1c0 0.2 0 0.3-0.1 0.5 0 0.1-0.1 0.2-0.1 0.3s0 0.1-0.1 0.1c-0.1 0.1-0.2 0.3-0.1 0.4v0.1 0.1 0.2 0.2 0.2 0.8 0.4 0.4 0.1 0.2 0.2 0.1c0.1 0.2 0.1 0.3 0.1 0.5v0.2c0.1 0.1 0.1 0.3 0.1 0.4 0 0.2 0.1 0.4 0.1 0.5 0.3 0.2 0.3 0.3 0.3 0.4s0.1 0.2 0.1 0.3v0.2c0 0.1 0 0.2 0.1 0.3v0.1 0.1l0.3 0.6c0 0.1 0.1 0.2 0.1 0.3 0.1 0.1 0.1 0.2 0.2 0.3s0.2 0.2 0.2 0.3 0.1 0.1 0.1 0.2c0.1 0.1 0.1 0.3 0.2 0.4 0 0.1 0.1 0.2 0.2 0.3s0.1 0.2 0.2 0.3c-0.1 0.2 0 0.2 0.1 0.3 0.2 0.1 0.3 0.2 0.4 0.4 0 0.1 0.1 0.1 0.1 0.2s0.1 0.2 0.2 0.3l0.1 0.1 0.1 0.1c0.2 0.1 0.3 0.2 0.3 0.3l0.1 0.1c0.1 0 0.1 0.1 0.2 0.2l0.3 0.3c0.1 0.1 0.3 0.2 0.4 0.4 0.1 0.1 0.2 0.3 0.4 0.3l0.1 0.1 0.1 0.1c0 0.1 0.1 0.1 0.2 0.2 0.1 0 0.1 0.1 0.2 0.1s0.1 0.1 0.2 0.1c0.2 0.1 0.4 0.3 0.6 0.4 0 0.1 0.2 0.2 0.3 0.3l0.1 0.1c0.1 0 0.1 0.1 0.2 0 0.1 0 0.2 0.1 0.3 0.1s0.1 0.1 0.2 0.1 0.2 0.1 0.2 0.1c0.2 0.1 0.3 0.2 0.5 0.3s0.3 0.1 0.5 0.1 0.5 0.1 0.7 0.1c0.3 0.1 0.7 0.2 1 0.3 0.1 0 0.2 0 0.3 0.1h0.1 0.5 0.1c0.1 0 0.1 0 0.2 0.1 0 0 0.1 0 0.2 0.1h0.2 0.2c0.1 0.2 0.2 0.2 0.3 0.2h0.1c0.1 0 0.2 0 0.2-0.1s0.1-0.1 0.2-0.1h0.2 0.4 0.4c0 0.2-0.2 0.4-0.3 0.6l0.2 0.2c0.1 0.1 0.1 0.2 0 0.3 0 0.1 0.1 0.3-0.1 0.4h0.1c0.1 0 0.1 0.1 0.1 0.2 0.1 0.1 0.2 0.1 0.3 0.2l-0.1 0.1c0 0.1 0 0.1 0.1 0.2 0 0.1 0.1 0.1 0.1 0.2-0.2-0.1-0.4 0-0.6 0h-0.3c-0.1 0-0.1 0-0.2 0.1h-0.1s0-0.1-0.1-0.1-0.2-0.1-0.4 0h-0.1c0-0.1-0.1-0.1-0.2 0h-0.5-0.6c-0.2 0-0.4 0-0.6-0.1-0.1 0-0.3 0-0.4-0.1h-0.1-0.1c-0.3 0-0.5-0.1-0.8-0.1-0.2 0-0.3-0.1-0.5-0.1s-0.3-0.1-0.5-0.2c-0.3-0.1-0.5-0.2-0.8-0.3-0.1 0-0.1-0.1-0.2-0.1 0 0-0.1 0-0.1-0.1s-0.1 0-0.1 0h-0.1s-0.1 0-0.1-0.1-0.1-0.2-0.1-0.2c-0.1 0-0.2-0.1-0.2-0.1-0.2-0.1-0.5-0.1-0.7-0.3-0.1 0-0.2-0.1-0.4-0.2-0.1 0-0.1 0-0.2-0.1s-0.2-0.2-0.3-0.2c-0.2-0.1-0.3-0.2-0.4-0.3-0.1 0-0.1-0.1-0.1-0.1 0-0.1-0.1-0.1-0.2-0.2s-0.2-0.1-0.3-0.1-0.2 0-0.3-0.1c-0.1-0.2-0.3-0.2-0.4-0.3 0-0.1-0.1-0.1-0.2-0.2s-0.2-0.1-0.2-0.2l-0.1-0.1c0-0.1-0.1-0.2-0.2-0.2 0 0-0.1 0-0.1-0.1s-0.1-0.2-0.2-0.2l-0.3-0.3-0.1-0.1c-0.1 0-0.1 0-0.1-0.1s-0.1-0.1-0.2-0.2c0-0.1-0.1-0.1-0.2-0.2l-0.2-0.2c-0.1-0.1-0.2-0.1-0.3-0.3-0.1-0.1-0.2-0.3-0.3-0.4s-0.1-0.3-0.3-0.4c0-0.1-0.1-0.2-0.1-0.3-0.1-0.2-0.3-0.4-0.4-0.6-0.1-0.1-0.1-0.2-0.2-0.3l-0.3-0.6v-0.1c0-0.1 0-0.3-0.1-0.4 0-0.1-0.1-0.2-0.1-0.3s-0.1-0.1-0.2-0.2-0.1-0.1-0.1-0.2v-0.1c0-0.2 0-0.4-0.2-0.5 0.1-0.1 0-0.2 0-0.3-0.1-0.1-0.1-0.2-0.1-0.4 0-0.1-0.1-0.2-0.1-0.3 0 0-0.1 0-0.1-0.1l-0.1-0.1c0-0.1 0-0.1-0.1-0.2 0 0 0-0.1-0.1-0.2 0-0.1 0-0.2-0.1-0.2v-0.1-0.1c0-0.2 0-0.3-0.1-0.5v-0.1-0.1c0-0.1 0-0.3-0.1-0.4v-0.3c0-0.1 0-0.2-0.1-0.3v-0.5-0.1-0.2s0-0.2-0.1-0.3c0.1-0.4 0.1-0.8 0.1-1.1z"/>
				<path class="st1" d="m30.8 16.9c-0.1 0.1-0.1 0.1-0.1 0.2 0 0 0 0.1-0.1 0.1 0.1 0.1 0.1 0.3 0 0.4-0.1 0.5-0.1 1-0.3 1.5v0.1 0.1c-0.1 0.1-0.1 0.2-0.1 0.4s-0.1 0.4 0 0.6v0.1c-0.1 0.1-0.2 0.2-0.3 0.4 0 0-0.1 0.1-0.1 0.2h0.1c0.1 0.1 0.1 0.1 0 0.2l-0.1 0.1c0 0.2-0.2 0.3-0.1 0.5v0.1s0 0.1-0.1 0.1c-0.1 0.2-0.2 0.4-0.2 0.6 0 0.1-0.1 0.1-0.1 0.2-0.1 0.1-0.2 0.2-0.2 0.3v0.1c0 0.2-0.1 0.3-0.2 0.4-0.1 0.3-0.3 0.4-0.5 0.7 0 0.1-0.1 0.1-0.1 0.2s0 0.2-0.1 0.2h-0.1c-0.1 0.1-0.2 0.3-0.3 0.5l-0.1 0.1v0.1 0.1c-0.1 0.1-0.1 0.2-0.2 0.3s-0.2 0.3-0.3 0.4l-0.3 0.3-0.3 0.3-0.1 0.1c0 0.1-0.1 0.1-0.2 0.1 0 0.1-0.2 0.2-0.2 0.3l-0.6 0.6c-0.2 0.2-0.4 0.3-0.6 0.5-0.1 0-0.1 0.1-0.2 0.1-0.2 0.1-0.5 0.2-0.7 0.4-0.2 0.1-0.4 0.2-0.7 0.4s-0.6 0.3-0.8 0.5c0 0.1-0.1 0.1-0.2 0.2-0.2 0-0.3 0.1-0.4 0.2h-0.1-0.1c-0.1 0-0.2 0-0.3 0.1 0 0-0.1 0-0.1 0.1s-0.1 0.1-0.2 0.1h-0.4-0.1c-0.1 0.1-0.2 0.1-0.3 0.2-0.1 0-0.2 0.1-0.4 0.1h-0.1c-0.2-0.1-0.4-0.1-0.5 0.1h-0.2l0.6-0.6c0.1 0.1 0.2 0 0.3-0.1l0.1-0.1c0.1 0 0.1 0 0.1-0.1h-0.1c0-0.1 0.1 0 0.2-0.1v-0.2c0-0.1 0.1-0.2 0.2-0.2l0.2-0.2c0.1-0.1 0.1-0.2 0.1-0.3-0.1-0.2 0-0.3 0.2-0.4 0.1 0 0.2-0.1 0.2-0.2 0.1 0 0.2-0.1 0.2-0.2 0.1-0.1 0.1-0.2 0.1-0.4 0 0 0-0.1 0.1-0.1 0.2-0.1 0.4-0.2 0.5-0.3l0.3-0.3c0.1-0.1 0.2-0.2 0.4-0.3 0.2-0.2 0.4-0.3 0.6-0.4 0.1-0.1 0.3-0.2 0.4-0.3s0.3-0.2 0.4-0.3 0.3-0.2 0.4-0.3 0.2-0.1 0.3-0.2 0.2-0.2 0.2-0.3 0.1-0.1 0.2-0.1c0.2-0.1 0.4-0.2 0.5-0.4l0.1-0.1c0.1-0.1 0.1-0.1 0-0.2v-0.1c0.1 0 0.1-0.1 0.2-0.1 0 0 0.1-0.1 0.1-0.2s0.1-0.1 0.1-0.2v-0.1l0.2-0.2c0.1-0.1 0.1-0.2 0.2-0.3 0-0.1 0.1-0.1 0.2-0.2 0.1 0 0.1-0.1 0.1-0.1v-0.1-0.2l0.3-0.3 0.3-0.3c0.1-0.1 0.2-0.2 0.3-0.4 0.1 0 0.1-0.1 0.2-0.1 0.1-0.1 0.2-0.3 0.3-0.4 0-0.3 0.1-0.5 0.1-0.8 0 0 0-0.1 0.1-0.1 0.1-0.1 0.2-0.3 0.3-0.4 0 0-0.1-0.1-0.1-0.2h0.1s0-0.1 0.1-0.1v-0.2c0-0.1 0-0.2 0.1-0.3 0-0.1 0-0.1-0.1-0.2v-0.1-0.3c0.1 0 0.2-0.1 0.2-0.1v-0.1-0.2-0.2-0.1-0.4-0.5-0.1c0.1 0 0.1 0 0.1-0.1v-0.1c0.1-0.1 0.1-0.2 0.1-0.3v-0.2c-0.1 0-0.1-0.1-0.1-0.2v-0.1-0.2-0.1c-0.1-0.1-0.1-0.2-0.1-0.4 0-0.1-0.1-0.2-0.2-0.2v-0.2-0.1c0-0.1 0.1-0.1 0.1-0.2s0-0.2-0.1-0.2h-0.1v-0.1-0.1c0.1 0 0.1-0.1 0.1-0.2s-0.1-0.2-0.1-0.3c-0.1-0.1 0-0.3-0.3-0.4 0.1-0.1 0.1-0.2 0-0.3 0-0.1-0.1-0.2-0.1-0.3v-0.1-0.1-0.2c0-0.2-0.1-0.4-0.1-0.6 0-0.1 0-0.2-0.1-0.2v-0.1c0-0.1-0.1-0.1-0.1-0.2s0-0.2-0.1-0.3-0.1-0.2-0.1-0.2c-0.1-0.1-0.1-0.2-0.1-0.3-0.1-0.2 0-0.4-0.1-0.6-0.5-0.3-0.6-0.3-0.8-0.3l-0.3-0.3 0.1-0.1v-0.1c-0.1-0.1-0.2-0.3-0.3-0.4h-0.1-0.2c0.1-0.1 0.1-0.1 0-0.2l-0.1-0.1c0-0.1-0.1-0.2-0.2-0.3h-0.1c0-0.1-0.1-0.2-0.2-0.2 0.1-0.3 0-0.3-0.2-0.5v-0.1c-0.1-0.1-0.2-0.1-0.2-0.2-0.1-0.1-0.1 0-0.2 0v-0.1c0-0.1-0.1-0.1-0.2-0.1h-0.1-0.2c-0.2-0.1-0.3-0.2-0.4-0.3h0.2v-0.1c0-0.1-0.1-0.1-0.1-0.2 0 0-0.1-0.1-0.1-0.2s-0.1-0.2-0.1-0.2c-0.1-0.1-0.1-0.2-0.2-0.2-0.1-0.1-0.2-0.1-0.2-0.3 0-0.1-0.1-0.1-0.1-0.1-0.2 0.1-0.3 0-0.4 0 0 0-0.1 0-0.1-0.1 0.1-0.1 0.1-0.1 0-0.2s-0.3-0.1-0.4-0.2c-0.1 0-0.2 0-0.2-0.1h-0.1-0.1c-0.1-0.1-0.3-0.2-0.4-0.4v-0.1c0.1-0.1 0.1-0.1 0-0.3 0-0.1-0.1-0.2-0.1-0.3 0.1-0.1 0.2-0.2 0.2-0.4 0.1 0 0.2 0.1 0.3 0.1s0.2 0.1 0.3 0.2l0.1 0.1c0.1 0 0.2 0 0.2 0.1 0.1 0.1 0.2 0.1 0.4 0.2h0.1 0.1c0.1 0.1 0.3 0.2 0.4 0.3 0.1 0 0.2 0.1 0.3 0.2 0.1 0 0.2 0.1 0.2 0.2 0.1 0 0.1 0.1 0.2 0.1h0.1c0.1 0.1 0.3 0.1 0.4 0.2 0.1 0 0.1 0.1 0.2 0.2s0.2 0.2 0.3 0.2 0.2 0.1 0.2 0.2l0.1 0.1c0.1 0 0.1 0.1 0.1 0.1 0 0.1 0.1 0.1 0.1 0.1h0.1c0.2 0.1 0.3 0.2 0.5 0.3 0 0 0.1 0 0.1 0.1v0.2c0 0.1 0.1 0.2 0.2 0.3 0.1 0.5 0.3 0.7 0.6 0.9 0.1 0.1 0.3 0.3 0.4 0.5 0 0.1 0.1 0.2 0.1 0.3l0.1 0.1c0 0.1 0 0.3 0.2 0.3 0 0.1 0 0.3 0.1 0.4s0.2 0.2 0.2 0.4c0 0.1 0.1 0.1 0.1 0.2s0.1 0.1 0.1 0.2 0.1 0.2 0.1 0.3 0 0.2 0.1 0.3 0.1 0.3 0.2 0.4c0 0.1 0.1 0.2 0.2 0.2 0.2 0 0.1 0.2 0.2 0.3 0 0 0 0.1 0.1 0.1 0 0.1 0.1 0.1 0 0.2v0.1 0.1c0.1 0.2 0.1 0.4 0.2 0.6v0.1c0.1 0.1 0.1 0.1 0 0.2 0.1 0.2 0.1 0.4 0.1 0.5s0 0.2 0.1 0.3v0.1 0.2 0.1s0.1 0.1 0 0.1c0 0.2 0 0.4 0.1 0.5 0 0.1 0 0.1 0.1 0.2 0 0.1-0.1 0.1-0.1 0.2v0.1c0 0.1 0 0.3 0.1 0.4 0.1 0.2 0.1 0.4 0.2 0.7 0 0.1 0 0.3 0.1 0.4v0.2 0.4l0.2 0.2z"/>
				<path class="st1" d="m16 1.6h0.3c0 0.1-0.1 0.2-0.1 0.3s0 0.2-0.1 0.3c-0.1-0.1-0.3-0.1-0.4 0h-0.1s-0.1 0-0.1 0.1v0.1s0.1 0 0.1 0.1h-0.1c-0.1 0-0.1 0-0.1 0.1-0.1 0-0.2 0-0.2-0.1h-0.1c-0.1-0.1-0.2-0.1-0.3-0.1s-0.1 0-0.2-0.1-0.3 0-0.3 0.1c-0.2 0-0.3 0.1-0.4 0.1h-0.2-0.2c-0.1 0-0.1 0-0.1 0.1v0.1h-0.2v-0.1-0.1s-0.1-0.1-0.1 0h-0.2-0.2-0.1c-0.1 0-0.1 0-0.2 0.1s-0.2 0.1-0.3 0.1-0.2 0-0.2 0.1-0.1 0.1-0.1 0.1-0.1 0.1-0.3 0.1c-0.1-0.1-0.1 0-0.2 0-0.1 0.1-0.2 0.1-0.3 0.2-0.2 0.1-0.4 0.1-0.6 0.2h-0.1-0.1-0.1-0.2-0.1c-0.1 0.2-0.1 0.3-0.2 0.4v0.1h-0.2c-0.1 0.1-0.2 0.1-0.3 0.2-0.1 0-0.1 0.1-0.1 0.3-0.1-0.1-0.2-0.2-0.4-0.1 0.1-0.1 0.3-0.1 0.2-0.3 0.1 0 0.2 0 0.3-0.1 0.1 0 0.1-0.1 0.1-0.2v-0.1c0.1 0 0.1 0.1 0.2 0.1 0 0 0-0.1 0.1-0.1v-0.1l-0.1-0.1c0.1 0 0.2-0.1 0.3-0.1 0.2 0 0.4 0 0.6-0.1 0.1 0 0.1-0.1 0.1-0.2 0.1 0 0.1-0.1 0.2-0.1s0.1 0 0.1-0.1c0.1 0 0.1-0.1 0.1-0.1 0.1-0.1 0.2-0.2 0.3-0.2s0.2 0 0.2-0.1h0.1 0.3c0.1 0 0.2 0 0.3-0.1 0.2 0 0.4 0 0.5-0.1 0.2 0 0.3-0.1 0.5-0.1v-0.1c0.1 0 0.2-0.2 0.3-0.1h0.1c0.1 0 0.2 0 0.2-0.1 0.3 0 0.2 0 0.4-0.1 0.1 0.1 0.1 0.1 0.2 0.1h0.4c0.1 0 0.2 0 0.2-0.1h0.3c0 0.1 0 0.1 0.1 0.1s0.2 0 0.2-0.1h0.2c0.2-0.1 0.3-0.1 0.4-0.1z"/>
				<path class="st1" d="m17.1 31.2l0.3-0.3c0.1-0.1 0.3-0.2 0.4-0.3 0 0 0.1 0 0.1-0.1l0.2-0.2c0-0.1 0.1-0.1 0.2-0.2 0.1 0.1 0.2 0 0.2 0.1-0.1 0.1 0 0.3 0 0.4s0.1 0.1 0.1 0.2c-0.1 0.1-0.2 0.1-0.3 0.2s-0.3 0.1-0.4 0.1h-0.1-0.1c-0.1-0.1-0.2-0.1-0.3 0l-0.1 0.1h-0.2z"/>
				<path class="st1" d="m7.9 4.7c0.2-0.1 0.3-0.3 0.5-0.4 0 0 0.1 0 0.2 0.1-0.1 0-0.1 0.1-0.3 0.1-0.1 0.1-0.2 0.1-0.4 0.2z"/>
			<path class="st0" d="m79 12.7c-0.1-0.2-0.1-0.4 0-0.6 0-0.2 0-0.4-0.1-0.5v0.3c0 0.2 0 0.3-0.1 0.5v0.1c0.1 0.2 0.1 0.4 0 0.5 0 0.1 0 0.2 0.1 0.2 0 0 0.1 0.1 0.1 0.2-0.2 0.6 0 1.3 0 2v0.8 0.1c0 0.1-0.1 0.2-0.1 0.4 0 0.1 0.1 0.2 0.1 0.4 0 0.1 0 0.3 0.1 0.4 0.1 0.2 0 0.5 0 0.7 0 0.1-0.1 0.2-0.1 0.3s0 0.2 0.1 0.3c0.1 0 0.1 0.1 0.1 0.2v0.4c0 0.1-0.1 0.1-0.2 0.2 0.1 0.2 0.1 0.4 0 0.6-0.1 0.4-0.1 0.7 0 1.1v0.4 0.3c0.1 0.4 0 0.9 0.1 1.3v0.9 0.8 0.4 0.3c0.1 0.2 0.1 0.5 0 0.7v0.2c0.1 0.3 0.4 0.4 0.7 0.5v0.2c-0.1 0.5-0.1 1-0.2 1.6v0.2c0 0.2 0 0.3 0.1 0.4s0.2 0.3 0.2 0.4v0.4c0 0.2-0.1 0.4-0.1 0.5v0.6 0.2c0.1 0.3 0 0.5 0 0.8-0.2 0.1-0.3 0.1-0.5 0h-0.3-0.2c-0.2 0-0.3-0.1-0.5 0h-0.1-0.9-0.1c-0.2 0.1-0.4 0.1-0.5-0.1-0.1-0.1-0.1-0.3 0-0.5 0.1-0.1 0.1-0.2 0.1-0.3v-0.6-0.5-0.1c0.1-0.4 0-0.8 0-1.2l-0.1-0.1c-0.2-0.3-0.6-0.4-0.9-0.5-0.2 0-0.5-0.1-0.7-0.1h-0.3-0.9-0.7c-0.5 0-0.9 0.2-1.3 0h-0.1l-0.6 0.6c-0.1 0.2 0 0.5-0.1 0.8 0 0.6 0 1.3-0.1 1.9v0.2c-0.3 0.1-0.6 0-0.9 0.1-0.3 0-0.6 0.1-0.9 0s-0.6 0-0.9-0.1v-0.3-1c0-0.2 0-0.4-0.1-0.5v-0.2c0.1-1 0-2 0.1-2.9 0.1-0.1 0.2-0.1 0.4-0.2 0.1-0.1 0.2-0.2 0.3-0.2 0.1-0.1 0.1-0.1 0.2-0.3 0.1-0.3 0.1-0.5 0.2-0.8l0.3-1.2c0.2-1 0.3-2 0.3-3v-1c-0.1-0.4 0-0.8 0-1.2v-1.3-1.2c0-1.2 0-2.4-0.1-3.5 0-0.6-0.1-1.2-0.1-1.8 0-0.1 0-0.2 0.1-0.4h0.3 1.2c0.3 0 0.6-0.1 0.9-0.1 0.4 0 0.8-0.1 1.2-0.1 0.4-0.1 0.9-0.1 1.3-0.2 0.3 0 0.5 0 0.8-0.1 1.1-0.1 2.2-0.1 3.3-0.1h0.4v0.2 1.8c-0.2 0.3-0.2 0.4-0.3 0.4zm-3.5 13.7v-1.1c0-0.1-0.1-0.2 0-0.3 0.1-0.2 0-0.3 0-0.5v-0.5c0.1-0.6 0-1.3 0-2v-0.8-1.4-1.2-0.6c0-0.5 0-1-0.1-1.5v-0.5c0-0.4 0-0.7-0.1-1-0.1-0.5-0.3-0.9-0.4-1.4 0-0.1-0.1-0.2-0.2-0.2-0.2 0-0.4 0.1-0.6 0.2-0.1 0.1-0.2 0.1-0.3 0.1 0 0-0.1 0-0.1 0.1-0.1 0.1-0.1 0.1-0.2 0.1s-0.2 0.1-0.3 0.1c-0.1 0.1-0.3 0.1-0.4 0.2-0.1 0-0.1 0.1-0.1 0.2s-0.1 0.2 0 0.3c0 0.1-0.1 0.3 0.1 0.4v0.1c-0.1 0.2 0 0.5 0 0.7v0.4c0 0.1-0.1 0.1-0.1 0.2s0.1 0.3 0.1 0.4c-0.1 0.1-0.1 0.2-0.2 0.3h0.1s0.1 0 0.1 0.1v0.1c-0.1 0.1-0.1 0.3-0.2 0.5v0.1c0.1 0.2 0.1 0.4 0.1 0.6 0 0.3 0.1 0.5 0 0.8v0.2 0.2 0.1c0.1 0.1 0 0.2 0 0.3-0.1 0.1-0.1 0.2-0.2 0.3 0.2 0.3 0.2 0.4 0.2 0.7 0 0.1 0 0.3-0.1 0.4s0 0.3-0.1 0.4c-0.1 0.2-0.1 0.4-0.1 0.5v0.2c-0.1 0.2-0.1 0.3-0.1 0.5v0.5c0 0.2 0 0.4-0.1 0.5-0.2 0.2-0.2 0.4-0.2 0.5s-0.1 0.3-0.1 0.4c-0.1 0.4-0.2 0.8-0.5 1.1v0.1c0.2 0.3 0.5 0.7 0.7 0.9 0.3 0 0.6 0 0.9-0.1h0.2c0.4 0 0.8 0.1 1.3 0.1 0.2 0 0.4 0 0.6-0.2 0.1-0.2 0.2-0.4 0.4-0.6z"/>
			<path class="st0" d="m34.4 28.8c0-0.4 0-0.8-0.1-1.2v-1.2c0-0.2-0.1-0.3 0-0.5v-0.5c0-1.7 0-3.4-0.1-5v-2.3c0-0.5 0-1.1-0.1-1.6v-0.4c0-0.5-0.1-1-0.2-1.4-0.1-0.3-0.1-0.6-0.1-1-0.1-0.9-0.1-1.8-0.1-2.7v-0.3c0.2-0.1 0.4 0 0.6 0h0.6 0.6c-0.1 0.3-0.3 0.3-0.5 0.3h-0.2c-0.1 0-0.2 0-0.3 0.1h0.3c0.1 0 0.2 0 0.3 0.1h0.1c0.2-0.1 0.3 0 0.5 0h0.1c0.1-0.1 0.2-0.1 0.4-0.1h0.6c0.3 0 0.6-0.1 0.9-0.1h0.5c0.1 0 0.2 0.1 0.4 0.1s0.5-0.1 0.7-0.1c0.1 0 0.2 0 0.3 0.1 0.1 0 0.1 0.1 0.2 0.1s0.2 0 0.2-0.1v-0.1h0.1c0.1 0 0.3 0 0.4 0.2h0.1c0.2 0 0.4 0 0.5 0.1 0.2 0.1 0.5 0.1 0.7 0.1h0.1c0.3 0.2 0.6 0.2 0.9 0.4 0.1 0.1 0.2 0.1 0.3 0.2 0.2 0.1 0.3 0.3 0.5 0.5 0.1 0.1 0.2 0.3 0.3 0.5 0.1 0 0.1 0 0.1 0.2 0 0.1 0 0.2 0.1 0.2 0.1 0.1 0.1 0.3 0.1 0.5s0 0.3-0.1 0.5v0.4c0.1 0.2 0.2 0.4 0.1 0.6v0.5c0 0.1 0 0.3-0.1 0.4v0.1c0.1 0.3-0.1 0.5-0.2 0.7-0.1 0.1 0 0.3-0.1 0.4s-0.2 0.2-0.2 0.3c-0.1 0.2-0.3 0.4-0.4 0.6l-0.1 0.1c-0.4 0.2-0.7 0.4-1.1 0.5-0.1 0-0.2 0.1-0.4 0.1 0 0-0.1 0-0.2 0.1l-0.3 0.3c-0.1 0.1-0.1 0.2 0 0.4s0.4 0.3 0.6 0.3 0.4 0 0.6 0.2c0 0 0.1 0 0.2 0.1s0.3 0.1 0.4 0.2c0 0 0.1 0 0.1 0.1 0.1 0.3 0.4 0.4 0.5 0.7 0 0 0 0.1 0.1 0.1 0 0.1 0 0.2 0.1 0.3 0.1 0.3 0.2 0.5 0.1 0.8 0.2 0 0.2 0.2 0.2 0.4v0.1 0.9c0 0.2 0.1 0.5 0.1 0.7v0.3c-0.1 0.3-0.1 0.7-0.2 1-0.1 0.4-0.2 0.8-0.5 1.2v0.1c-0.2 0.5-0.6 0.8-1 1-0.2 0.1-0.4 0.2-0.6 0.2-0.3 0-0.6 0.1-0.9 0.2h-0.1c-0.2-0.1-0.4 0-0.7 0h-0.7-0.5-0.1c-0.2-0.1-0.4 0-0.6 0h-0.4-0.9-0.5c-0.6 0.1-1.2 0-1.8 0 0 0.1-0.1 0.1-0.2 0zm3.6-8.4l-0.5 0.5c-0.1 0.1-0.2 0.2-0.1 0.4v0.3c-0.1 0.5 0 0.9 0 1.4s0.1 1 0.1 1.6c0 0.1 0 0.2 0.1 0.3 0.1 0.2 0.2 0.3 0.3 0.5s0.2 0.4 0.2 0.6v0.6 0.2c0.1 0.1 0.3 0 0.4 0h0.5 0.1c0.1 0.1-0.2 0.1-0.1 0.2 0.2 0 0.4-0.1 0.6-0.1 0.1 0 0.2-0.2 0.3-0.1 0 0 0.1 0 0.1-0.1s0.2-0.1 0.2-0.2v-0.1c0.1-0.1 0.2-0.2 0.3-0.2 0-0.3 0.1-0.6 0.1-0.9v-0.2c0-0.1 0.1-0.1 0.2-0.2-0.1-0.2-0.1-0.2-0.1-0.4 0.1-0.2 0.1-0.5 0.1-0.7 0-0.1 0-0.3-0.1-0.4s-0.1-0.1 0-0.2c0.1-0.3 0.1-0.6 0.1-0.9v-0.1c0.2-0.4 0.2-0.4-0.1-0.7-0.1-0.1-0.1-0.1-0.1-0.2-0.1-0.3-0.3-0.5-0.6-0.7h-0.1c-0.2 0-0.4 0-0.5-0.1-0.5-0.1-0.9-0.1-1.4-0.1zm-0.7-7c0 0.4-0.1 0.8 0 1.3-0.1 0.5 0.1 1.1 0.1 1.6 0 0.1 0 0.2 0.1 0.3s0.1 0.2 0.2 0.4c0.2 0.2 0.2 0.4 0.2 0.6v0.6 0.2c0.3 0.1 0.6 0 0.9 0-0.1 0.1-0.1 0.2-0.1 0.2 0.3 0 0.5-0.2 0.8-0.2v-0.1l0.1-0.1c0.1 0 0-0.1 0.1-0.1s0.2-0.1 0.3-0.1c0.1-0.3 0.2-0.6 0.2-0.9 0-0.2 0.1-0.2 0.2-0.3-0.1-0.1-0.1-0.2-0.1-0.4 0-0.1 0.1-0.2 0.1-0.3 0-0.3 0.1-0.5-0.1-0.8 0.1-0.4 0.1-0.5 0-0.9 0 0 0-0.1 0.1-0.1 0.1-0.3 0.1-0.4-0.1-0.6-0.1 0-0.1-0.1-0.2-0.2-0.1-0.2-0.3-0.3-0.4-0.5-0.1 0-0.1-0.1-0.2-0.1-0.4-0.1-0.8-0.1-1.2-0.2h-0.4c-0.1 0-0.2 0-0.3 0.1 0.1 0.3-0.1 0.5-0.3 0.6zm4.9 6.7z"/>
			<path class="st0" d="m51.7 21.1c-0.2-0.2-0.1-0.4-0.1-0.5 0.1-0.2 0.1-0.3 0.1-0.5v-1.2-0.2c0.1-0.1 0.1-0.3 0.1-0.5v-0.8-0.3-0.2c0.1-0.4 0-0.7 0-1.1v-0.6c0.1-0.4 0.1-0.9 0.2-1.3v-0.2c0-0.2 0-0.4-0.2-0.5-0.2-0.2-0.4-0.3-0.5-0.5h-1.2-0.3c-0.3 0-0.6 0.1-0.8 0.4 0 0.1-0.1 0.1-0.2 0.2-0.2 0.1-0.2 0.4-0.2 0.6 0.1 0.3 0 0.6 0 0.9v0.4 3.3 0.7c0 0.6 0.1 1.2 0 1.8 0 0.4 0 0.7 0.1 1.1v0.5 0.1c0 0.6 0 1.1 0.1 1.7v0.2c-0.1 0.1-0.1 0.3-0.1 0.5 0 0.5 0 0.9-0.1 1.3-0.1 0.3-0.2 0.5-0.2 0.8v0.1c-0.1 0.2-0.2 0.4-0.4 0.6s-0.4 0.5-0.7 0.6c-0.2 0.1-0.5 0.2-0.7 0.2-0.7 0.1-1.4 0.2-2 0.1h-0.2c-0.1-0.2 0-0.3 0.1-0.5 0.2-0.3 0.4-0.6 0.6-1 0.1 0 0.2-0.1 0.3-0.1 0.4-0.1 0.7-0.5 0.9-0.9 0.1-0.2 0.1-0.5 0.1-0.7v-1.1c0-0.2-0.1-0.4 0-0.7 0-0.2 0.1-0.4 0-0.6 0-1.8 0-3.5-0.1-5.3 0-1.4-0.1-2.7-0.1-4.1v-1.3-1.2-0.1c0.2 0 0.4-0.1 0.5-0.1 0.4 0 0.9-0.1 1.3-0.1 0.3 0 0.5 0 0.8-0.1 0.5-0.1 0.9-0.1 1.4-0.2h0.5 0.1c0.3 0 0.6 0 1-0.1 1.1-0.1 2.2 0 3.3-0.1h0.4c0.1 0.3 0.1 1.9 0 2.4 0 0-0.1 0-0.1 0.1 0-0.3-0.1-0.6 0-0.9 0-0.2 0-0.4-0.1-0.6-0.1 0.2-0.1 0.3 0 0.5 0 0.1 0 0.3-0.1 0.4v0.2c0.1 0.2 0.1 0.4 0 0.7 0 0.1 0 0.2 0.1 0.3 0 0 0.1 0.2 0 0.3-0.1 0.5-0.1 0.9-0.1 1.4s0.1 0.9 0 1.4v0.2c0 0.2 0.1 0.5-0.1 0.7v0.2c0 0.1 0.2 0.2 0.1 0.4v0.3c0 0.1 0.1 0.3 0.1 0.4 0 0.2-0.1 0.4-0.1 0.6 0 0.1-0.1 0.2-0.1 0.3s0 0.3 0.1 0.3 0.1 0.1 0.1 0.2v0.4c-0.1 0.1-0.1 0.2-0.2 0.2v0.1c0.1 0.2 0.1 0.4 0 0.5-0.1 0.5-0.1 1.1 0 1.6v0.4 0.7 0.5 1.1 0.7 1.3c0 0.1 0 0.2-0.1 0.3v0.2c0 0.1 0.1 0.3 0.1 0.4v0.2h-0.5c-0.3-0.1-0.5-0.1-0.8 0-0.1 0-0.7 0.1-0.8 0.1h-1.1c-0.2 0-0.4 0-0.6-0.1v-0.2-0.2c-0.1-0.2-0.1-0.4 0-0.6v-0.5-0.9-0.2c-0.1-0.2-0.1-0.4 0-0.6 0-0.3 0-0.5 0.1-0.8v-1-0.4-0.3-0.2c0.1-0.2 0-0.4 0-0.6-0.1-0.2-0.1-0.4-0.1-0.6v-0.5c0.3 0 0.3-0.1 0.4-0.2l-0.1-0.1 0.1 0.1z"/>
			<path class="st0" d="m59.3 11.1c0.6-0.1 1.2-0.2 1.7-0.3 0.2 0 0.4 0 0.6-0.1 0.5 0 1-0.1 1.6-0.1h1.2 0.4c0.1 0.3 0.1 0.7 0.2 1 0 0.3 0.1 0.6 0.1 1-0.1-0.2-0.2-0.4-0.2-0.6s0-0.3-0.1-0.5c-0.1 0.1 0 0.2 0 0.3s0.1 0.3 0 0.4c0.1 0.2 0.1 0.5 0.1 0.7 0.2 0.1 0.1 0.2 0.1 0.4v0.4c0.1 0.4 0.1 0.7 0.2 1.1 0 0.2 0.1 0.4 0.1 0.6v0.2c-0.1 0.1-0.1 0.2 0 0.3 0 0.2 0.1 0.4 0.2 0.6v0.2c0 0.1 0 0.2-0.1 0.3-0.1 0.3-0.1 0.3 0.2 0.4v0.3 0.2 0.2c0 0.1 0.1 0.2 0 0.3-0.1 0.3 0 0.7 0.1 1 0 0.1 0.1 0.3 0.1 0.4 0 0.2 0 0.3 0.1 0.5v0.1c0 0.5 0.2 1 0.2 1.6 0 0.2 0 0.3 0.1 0.5 0 0.1 0.1 0.3 0 0.4 0 0.1 0 0.2 0.1 0.3s0.1 0.2 0.1 0.3c0 0.2 0 0.4-0.1 0.7 0 0.2 0 0.4 0.1 0.5 0.1 0.2 0.2 0.4 0.2 0.6s0.1 0.5 0.1 0.7v0.1c-0.1 0.2 0 0.3 0 0.5v0.2 0.5c0 0.1 0.1 0.2 0 0.3-0.1 0.2 0 0.4 0 0.6v0.5c-0.1 0-0.2 0.1-0.2 0.1-0.2 0-0.3 0.1-0.5 0-0.1 0-0.2 0.1-0.3 0.1s-0.2-0.1-0.3 0c-0.3 0.2-0.7 0-1 0.1h-0.3c-0.2-0.1-0.4-0.1-0.6-0.1 0-0.1-0.1-0.2-0.1-0.3 0-0.3-0.2-0.7-0.1-1v-0.3c-0.1-0.3-0.1-0.5 0-0.8 0-0.3 0.1-0.5 0.1-0.8s0-0.6-0.1-0.9c0-0.1-0.1-0.1-0.1-0.2l-0.4-0.4c-0.3-0.2-0.5-0.2-0.7-0.2s-0.5 0.1-0.7 0.1h-0.3-0.8c-0.1 0-0.2 0-0.3 0.1-0.5 0.4-0.5 0.4-0.6 1-0.1 0.3-0.1 0.6-0.2 1v0.5c0 0.3 0 0.5-0.1 0.8-0.1 0.4-0.1 0.8-0.2 1.2-0.2 0-0.4 0.1-0.5 0.1h-0.1c-0.1-0.1-0.2-0.1-0.4 0-0.4 0-0.8 0-1.2-0.1h-0.1c0-0.1 0-0.3 0.1-0.4 0.1-0.4 0.1-0.8 0.1-1.2v-0.3l0.3-1.5c0.1-0.3 0.1-0.6 0.2-0.9 0.1-0.7 0.2-1.5 0.4-2.2 0-0.3 0.1-0.6 0.1-0.9v-0.2c0-0.1 0-0.2 0.1-0.3s0.1-0.3 0.1-0.5c0.2-1.1 0.4-2.3 0.5-3.4 0.1-1 0.2-1.9 0.4-2.9v-0.2c0.2-0.6 0.2-1.2 0.3-1.8 0-0.4 0-0.6 0.1-0.9zm2.1 1.8c-0.2 0.2-0.3 0.3-0.5 0.4-0.3 0.3-0.3 0.7-0.4 1 0.1 0.2 0.1 0.5 0 0.7 0 0.2 0 0.5-0.1 0.7v0.1c0 0.2 0 0.3-0.1 0.5v0.5c-0.1 0.6-0.1 1.2-0.2 1.9v1.5 0.2c-0.1 0.5 0.1 1 0.4 1.5 0.2 0 0.3 0 0.4-0.1h0.3c0-0.1 0-0.1 0.1-0.2 0-0.1 0.1-0.2 0.1-0.2 0.1 0 0.3-0.2 0.4-0.2 0.2-0.1 0.3-0.2 0.5-0.2v-0.2c-0.1-0.2 0-0.4-0.1-0.6v-0.3c0-0.1-0.1-0.2-0.1-0.2s0-0.1 0.1-0.1c-0.1 0-0.1-0.1-0.2-0.1 0-0.1 0.1-0.2 0.1-0.3v-0.1c-0.2-0.4-0.1-0.8-0.2-1.1v-0.1c0-0.1 0.1-0.1 0.1-0.2 0.1-0.3 0-0.5 0-0.7 0-0.3 0.1-0.5 0-0.8v-0.1c0.1-0.2 0-0.3-0.1-0.5-0.1-0.1-0.1-0.3-0.1-0.4v-0.5-0.4-0.1c0.2-0.4 0.2-0.6-0.1-0.9 0-0.1-0.1-0.2-0.3-0.4zm3.1 16c-0.1 0-0.1 0 0 0h-0.1c0 0.1 0 0.1 0.1 0-0.1 0.1-0.1 0.1 0 0z"/>
			<path class="st0" d="m89 10.5c0.1 0.6 0.2 1.2 0.3 1.9-0.1-0.1-0.2-0.1-0.2-0.2 0-0.2-0.1-0.3-0.1-0.5 0-0.1 0-0.3-0.1-0.5v0.3c0 0.1 0.1 0.3 0 0.4v0.1c0 0.1 0.1 0.2 0.1 0.3v0.3c0.1 0.1 0.2 0.2 0.2 0.4-0.1 0.3 0 0.5 0 0.8 0.1 0.4 0.2 0.8 0.2 1.3v0.3c-0.1 0.1-0.1 0.2 0 0.3 0 0.2 0.1 0.4 0.2 0.6v0.3 0.2c-0.1 0.2 0 0.3 0.2 0.4v0.3 0.1c-0.1 0.1-0.1 0.1 0 0.2 0 0.1 0.1 0.2 0 0.3-0.1 0.4 0 0.7 0.1 1l0.1 0.1c0 0.4 0.1 0.8 0.1 1.2 0 0.1 0 0.2 0.1 0.3 0.1 0.3 0.1 0.6 0.1 0.8s0 0.4 0.1 0.5c0 0.1 0.1 0.3 0 0.4 0 0.1 0 0.2 0.1 0.3 0.1 0.2 0.1 0.3 0.1 0.5s-0.1 0.4-0.1 0.6 0 0.3 0.1 0.5 0.2 0.4 0.2 0.7c0 0.2 0.1 0.3 0.1 0.5s0.1 0.3 0 0.5v0.1c0.1 0.2 0.1 0.4 0.1 0.6v0.2c0.1 0.2 0.1 0.3 0.1 0.5v0.4c0 0.2 0.1 0.4 0 0.5-0.2 0.2-0.4 0.1-0.6 0.1-0.1 0-0.2-0.1-0.3 0-0.4-0.1-0.8 0.2-1.2 0.1-0.1 0-0.1 0-0.2-0.1-0.1 0-0.3 0.1-0.4 0s-0.3 0-0.4-0.1c0 0-0.1-0.1-0.1-0.2-0.1-0.4-0.2-0.7-0.1-1.1v-0.3c-0.1-0.3-0.1-0.5 0-0.8 0-0.3 0.1-0.6 0.1-0.9s-0.1-0.5-0.1-0.8c0-0.1-0.1-0.1-0.1-0.2l-0.4-0.4c-0.1-0.1-0.3-0.2-0.5-0.1s-0.5 0-0.7 0.1h-0.3-0.8c-0.1 0-0.3 0-0.4 0.1-0.2 0.1-0.4 0.3-0.5 0.4-0.1 0.2-0.1 0.4-0.2 0.6-0.1 0.3-0.1 0.6-0.2 1v0.4c0 0.5 0 1-0.2 1.4 0 0.2 0 0.4-0.1 0.5v0.1c-0.2 0-0.3 0.1-0.5 0.1h-0.1c-0.1-0.1-0.3-0.1-0.4 0-0.4 0-0.8 0-1.2-0.1v-0.4c0.1-0.4 0.2-0.9 0.2-1.3 0-0.1 0-0.3 0.1-0.4 0.1-0.4 0.1-0.7 0.2-1.1 0.1-0.3 0.2-0.7 0.2-1 0.1-0.8 0.2-1.5 0.4-2.3 0-0.3 0.1-0.6 0.1-0.9v-0.2c0-0.1 0-0.2 0.1-0.3s0.1-0.3 0.1-0.4c0.2-1.2 0.4-2.3 0.5-3.5 0.1-0.9 0.2-1.9 0.4-2.8v-0.2c0.2-0.6 0.2-1.3 0.3-1.9 0-0.2 0.1-0.5 0.1-0.7l1.8-0.3c0.6-0.1 1.2-0.1 1.8-0.1 0.2 0.2 0.8 0.2 1.5 0.2zm-2.6 6.9c-0.2-0.2-0.2-0.2-0.2-0.4v-0.2c0.1-0.3 0-0.6 0-0.8 0-0.1 0-0.2-0.1-0.3s-0.1-0.3-0.1-0.4c0-0.2 0.1-0.4 0-0.6 0-0.1 0-0.3 0.1-0.5 0.2-0.2 0.1-0.5 0-0.7l-0.3-0.3-0.3-0.3c-0.2 0.1-0.3 0.3-0.4 0.4-0.4 0.3-0.3 0.7-0.4 1 0.1 0.4 0 0.8 0 1.2 0 0.3-0.1 0.6-0.1 0.8v0.2 0.5c-0.1 0.7-0.1 1.4-0.2 2.1v1.5 0.4c0.1 0.3 0.2 0.6 0.4 0.9 0.1 0 0.2 0 0.3-0.1s0.2-0.1 0.3 0h0.1c0-0.1 0.1-0.2 0.1-0.3 0.1-0.1 0.2-0.1 0.3-0.2 0.2-0.1 0.4-0.3 0.7-0.4 0-0.1 0.1-0.2 0-0.3-0.1-0.2 0-0.4-0.1-0.6v-0.1c0.1-0.1 0-0.2 0-0.4 0-0.1 0.1-0.1 0.1-0.2-0.1 0-0.1 0-0.2-0.1 0-0.1 0.1-0.2 0.1-0.3s0-0.2-0.1-0.4-0.1-0.5-0.1-0.7v-0.2c0-0.1 0-0.1 0.1-0.2z"/>
			<path class="st2" d="m50.8 0.2c0-0.1-0.1-0.1-0.3-0.2h0.5 0.5c0.7 0.2 1.5 0.2 2.3 0.2h1.3 1.6 0.4c0.3 0 0.6 0 0.9 0.1 0.2 0 0.4 0.1 0.5-0.1h0.2c0.2 0 0.5 0 0.7 0.1 0.4 0.1 0.8 0.1 1.2 0.1h0.4 0.5c0.1 0 0.2 0 0.3-0.1 0.3 0 0.6-0.1 0.9 0h0.6 0.3c0.3 0.1 0.6 0.1 0.9 0.1h0.4c0.2 0 0.4 0 0.6-0.1s0.4 0 0.6-0.1c-0.1 0.2-0.2 0-0.3 0.1h1.3c0.3-0.1 0.7 0 1 0 0.2 0.2 0.5 0.1 0.7 0.1h0.2c0.5 0.1 1 0.1 1.6 0h2.1 1.2c0.3 0 0.5 0 0.8 0.1 0.1 0 0.2 0 0.3-0.1l0.1-0.1c0.2 0 0.5-0.1 0.7 0.1h0.2 0.4c0.4-0.1 0.7 0 1 0.1h0.3 1.1 0.3c0.2 0 0.3-0.1 0.5 0h0.5c0.3-0.1 0.7-0.1 1-0.1h0.5 1.3 0.4c0.2 0 0.3-0.1 0.5 0.1h0.3 0.5 0.3c0.3 0.1 0.6 0.1 1 0.1 0-0.1-0.1 0-0.1-0.1s-0.1 0-0.1-0.1h1.4 0.1c0.2 0.1 0.4 0.1 0.6 0 0.3-0.1 0.6-0.1 0.9 0 0.1 0 0.2 0.1 0.3 0 0.1 0 0.1-0.1 0.2-0.1h1.4 0.2c0 0.2 0.1 0.3 0.1 0.5s0.1 0.3 0.1 0.4l-0.1 0.1h-1-0.2c-0.3 0-0.7 0.1-1 0.1h-0.2c-0.4 0-0.8 0-1.2 0.1h-0.2c0-0.1 0-0.1-0.1-0.1-0.6 0-1.1-0.1-1.7-0.1-0.4 0-0.8 0.1-1.2 0.1-0.5 0.1-1.1 0.1-1.6 0.1-0.1 0-0.2 0-0.1-0.1 0 0 0.1 0 0.1-0.1v-0.1h-0.6c-0.2 0.1-0.5 0-0.7 0h-1.1-0.9c-0.7-0.1-1.4 0-2.2 0-0.3 0-0.7 0.1-1 0-0.2 0-0.3-0.1-0.5 0-0.2 0-0.3 0.1-0.5 0.1-0.3 0.1-0.6 0.1-0.8 0.1-0.1-0.1 0-0.2 0-0.3h-0.5v0.2c-0.3 0-0.6-0.1-0.8-0.1-0.1 0-0.2 0-0.3 0.1s-0.2 0.1-0.3 0.1l-0.1-0.1c-0.1 0-0.3 0-0.4 0.1-0.2 0-0.3 0.1-0.5-0.1h-0.3-0.7c-0.3 0-0.6 0.1-0.9 0.1s-0.5 0.1-0.8 0.1c-0.1 0-0.2 0-0.2-0.1-0.1-0.2-0.3-0.2-0.5-0.1s-0.4 0.1-0.6 0.2c-0.3 0.1-0.5 0.1-0.8 0v-0.1c0.2-0.1 0.4-0.1 0.6-0.2-0.1-0.1-0.2-0.2-0.3-0.2h-1.1c-0.2 0-0.4 0.1-0.6 0.1h0.9c-0.1 0-0.1 0.1-0.1 0.1-0.4 0.1-1.2 0.2-1.6 0.1v-0.1h-0.1-0.6-0.3c-0.5 0.1-1.1 0.1-1.6 0h-0.2c0.1 0.1 0.1 0.2 0.2 0.3-0.2 0.1-0.4 0-0.5 0.1h-0.5-0.5l0.2-0.2h-0.1-0.4-0.2c-0.2 0-0.5 0.1-0.7 0.1h-0.1c-0.4-0.1-0.7 0.1-1.1 0.1-0.2 0.1-0.5 0-0.7 0-0.8 0-1.6 0-2.4-0.1-0.2 0-0.5 0-0.7-0.1h-0.2c-0.1 0.1-0.3 0.1-0.4 0.1h-1.7c-1.6 0-3.1 0-4.7-0.1h-0.4c-0.3 0.1-0.7 0-1 0h-18.6-0.2c-0.3 0-0.5-0.1-0.7-0.3 0 0-0.1-0.1-0.3-0.2-0.3-0.2-0.6-0.4-1-0.7v-0.1h0.6 5 1.5 0.7c0.5 0.1 0.9 0 1.4 0s0.9 0 1.4 0.1h0.3s0.2 0 0.3 0c0.2-0.1 0.5 0 0.7 0.1h0.2 1.1 0.4 2.4 1.2c0.2 0 0.4 0 0.7-0.1h0.7 1.8 0.5c0.4 0.1 0.7 0.1 1.1 0 0.2 0 0.5-0.1 0.7-0.1h0.6c0.1 0 0.2 0 0.3 0.1s0.2 0.1 0.3 0.1c0.5 0 1 0 1.5-0.1 0.3-0.1 0.5-0.1 0.6 0 0.1 0 0.2 0 0.3-0.1-0.1 0-0.2 0.1-0.3 0.1zm3 1.2c-0.2-0.1-0.4 0-0.5 0s-0.3 0-0.5 0.1c0.3 0 0.6 0.1 1-0.1zm29.4-0.1h0.4 0.3-0.7zm-6.1-0.9c0 0.1 0.1 0 0 0 0.1 0 0 0 0 0z"/>
			<path class="st2" d="m26.7 30.2s0.1 0.1 0.2 0.1c0.2 0 0.5 0 0.7 0.1h0.4c0.5 0.1 0.9 0 1.4-0.1 0.6-0.1 1.1-0.1 1.7-0.2h0.3l0.1 0.1c-0.2 0.1-0.4 0-0.7 0.1 0.2 0 0.4 0 0.5 0.1h0.5c0.2-0.1 0.4-0.1 0.6-0.1h0.9 0.7c0.3 0 0.6 0 0.9 0.1h0.2 2.2c0.2 0 0.4-0.1 0.6 0h0.2c0.2 0 0.4-0.1 0.6-0.1 0.2-0.1 0.5-0.1 0.7-0.1s0.2 0.1 0.1 0.3h0.5s0-0.1 0.1-0.2c0.2 0 0.4 0.1 0.6 0.1s0.5 0.1 0.7-0.1c0.1-0.1 0.2-0.1 0.3 0.1h0.1c0.1 0 0.2 0 0.3-0.1h0.4c0.1 0 0.2 0.1 0.3 0.1 0.6 0 1.1 0 1.7-0.2 0.3-0.1 0.6-0.1 0.9-0.1 0 0.1 0.1 0.2 0.1 0.2h0.3c0.1 0 0.3-0.1 0.4-0.1 0.4-0.2 0.8-0.2 1.2-0.1h0.1c-0.3 0.1-0.6 0.1-0.9 0.3 0.6 0.1 1.1 0.2 1.6 0h-0.5c0.6-0.2 1.1-0.2 1.7-0.2v0.1c0.3 0 0.5 0.1 0.8 0.1h0.3c0.4-0.1 0.8-0.1 1.2 0h0.4c-0.1-0.1-0.1-0.2-0.1-0.3 0 0 0-0.1 0.1-0.1h1.5c-0.1 0.1-0.1 0.1-0.3 0.2 0.2-0.1 0.4-0.1 0.6 0h0.3c0.3 0 0.6-0.1 1-0.1 0.2 0 0.3 0 0.5-0.1s0.4-0.1 0.6-0.1c1 0 2 0 3.1 0.1h0.4 0.4c0.2-0.1 0.4-0.1 0.6 0v0.1c0.2 0 0.4 0 0.6-0.1s0.3-0.1 0.5-0.1h5.2 0.5c0.2 0.4 0.2 0.8 0.1 1.3-0.4 0-0.7 0.2-1.1 0.1h-0.3c-0.2 0-0.4 0.1-0.6-0.1h-0.2-1.3c-0.1 0-0.2 0-0.2 0.1h-0.1c-0.4 0-0.9 0.1-1.3 0-0.5-0.1-1.1-0.1-1.6-0.1h-1.1-0.9-0.6-0.7-0.5-0.6c-0.2 0-0.3-0.1-0.5 0.1h-0.2c-0.3 0-0.5 0-0.8-0.1s-0.6-0.1-1-0.1h-0.5-0.8c-0.2 0.1-0.4 0.1-0.6 0.1h-0.3c-0.2-0.1-0.5-0.1-0.7 0s-0.4 0.1-0.6 0-0.3-0.1-0.5-0.1h-0.5c-0.2 0-0.4 0-0.7 0.1-0.2 0.1-0.5 0.1-0.8 0 0.1-0.1 0.2 0 0.4-0.1-0.6-0.1-1.1 0-1.6 0.1h-0.5c-0.2 0-0.3 0-0.5-0.1h-0.3-0.6c-0.3-0.1-0.5 0-0.8 0-0.5 0-1 0-1.5 0.1h-1.7-0.5c-0.4 0-0.8 0-1.1-0.1-0.1 0.1-0.1 0.2-0.2 0.2-0.3 0-0.6 0.1-0.8 0h-0.3c-0.2 0-0.5 0-0.7 0.1-0.2 0-0.3 0-0.5-0.1-0.1 0-0.2-0.1-0.3-0.1h-1.3-0.3-0.3c-0.2-0.1-0.4 0-0.5 0-0.4 0.1-0.9 0.2-1.3 0.1h-0.2c-0.4 0.1-0.7 0-1.1 0-0.3 0-0.5 0-0.8 0.1-0.2 0-0.3 0-0.5-0.1-0.1-0.1-0.2-0.1-0.4-0.1h-0.5c-0.1 0-0.2 0-0.3-0.1-0.2-0.1-0.4-0.1-0.7-0.1 0 0.1 0.1 0.1 0.1 0.2h-0.4-0.4c-0.3-0.1-0.7 0-1-0.1h-0.3c-0.4 0.1-0.8 0.1-1.2-0.1 0.1 0 0.1-0.1 0.2-0.1 0.4-0.2 0.7-0.4 1.1-0.6l0.2-0.1zm36.5 1.3c-0.1 0-0.2-0.1-0.3 0h0.3zm-33-1.1h0.1-0.1zm18.7 0zm-12 0.8s0.1 0 0 0c0.1 0 0 0 0 0z"/>
			<path class="st2" d="m59.1 5.9c0.1 0 0.2 0.1 0.2 0.1 0.4 0.2 0.6 0.6 0.7 1 0.1 0.5 0.1 0.9-0.1 1.4-0.2 0.6-0.5 1-1.1 1.1-0.2 0.1-0.5 0.1-0.7 0.1h-2.5-0.2v-0.2-6.9h0.2 2.6c0.3 0 0.5 0 0.7 0.1 0.5 0.2 0.8 0.5 0.9 1 0.2 0.4 0.2 0.9 0.1 1.3s-0.3 0.7-0.6 0.9c-0.1 0-0.1 0-0.2 0.1zm-2 2.5h0.8c0.2-0.1 0.3-0.2 0.4-0.4 0.1-0.3 0.1-0.6 0-1-0.1-0.2-0.2-0.3-0.4-0.4s-0.5-0.1-0.7 0c-0.1 0.3-0.1 1.3-0.1 1.8zm0.1-4.6c-0.1 0.4-0.1 1.2 0 1.5h0.4 0.2c0.3 0 0.4-0.2 0.5-0.4v-0.5c0-0.2-0.2-0.4-0.4-0.5-0.3-0.1-0.5-0.1-0.7-0.1z"/>
			<path class="st2" d="m85.9 2.5h2c0 0.1 0.1 0.2 0.1 0.2l1.5 6.6v0.2c-0.3 0.1-0.5 0-0.8 0h-0.8c-0.2-0.5-0.2-0.9-0.3-1.4-0.3-0.1-0.9-0.1-1.3 0-0.1 0.4-0.1 0.9-0.3 1.4-0.3 0.1-0.6 0-0.8 0h-0.8c-0.1-0.2 1.3-6.6 1.5-7zm0.9 1.5c-0.2 1-0.4 2.6-0.4 3 0.3 0 0.6 0.1 0.9 0-0.1-1-0.3-1.9-0.4-2.8 0-0.1-0.1-0.1-0.1-0.2z"/>
			<path class="st2" d="m45.5 3.9h-2.2c-0.1 0.3-0.1 0.9 0 1.4h0.3 1.4 0.3c0.1 0.3 0.1 1 0 1.3-0.3 0.1-0.6 0-1 0h-1c-0.1 0.3-0.1 1.1 0 1.6h0.2 1.6 0.4c0.1 0.3 0.1 0.9 0 1.3h-0.1-3.8v-0.2-0.4-6.1-0.5h0.2 3.6 0.2c-0.1 0.7-0.1 1.1-0.1 1.6z"/>
			<path class="st2" d="m72.1 6.9v1.4 1.4h-0.2-1.4v-0.2-0.2-6.3-0.4h0.2 2.4c0.3 0 0.5 0 0.8 0.1 0.5 0.2 0.8 0.5 1 0.9 0.3 0.7 0.3 1.5 0 2.2-0.2 0.6-0.7 1-1.4 1.1-0.3 0-0.5 0-0.8 0.1-0.2-0.1-0.4-0.1-0.6-0.1zm0-1.3c0.1 0.1 0.3 0 0.4 0 0.4 0 0.6-0.3 0.7-0.6v-0.6c0-0.2-0.1-0.4-0.3-0.5s-0.5-0.1-0.8-0.1v1.8z"/>
			<path class="st2" d="m63.3 2.5h3.8 0.2c0.1 0.3 0.1 0.9 0 1.3h-0.3-1.6-0.4c-0.1 0.3-0.1 1 0 1.4h1 1c0.1 0.3 0.1 1 0 1.3-0.3 0.1-0.6 0-1 0h-1v1 0.8h0.3 1.6 0.4v1.3h-0.2-3.5-0.2v-0.3-1.7-4.6c-0.1-0.1-0.1-0.3-0.1-0.5z"/>
			<path class="st2" d="m38.2 9.7h-1.6c-0.1-0.1-0.1-0.2-0.1-0.3v-2.2-0.4h-0.2c-0.4 0.1-0.7 0.1-1.1 0.1-0.7 0-1.3-0.5-1.4-1.1 0-0.2-0.1-0.3-0.1-0.5v-2.4-0.2c0.2-0.1 0.4 0 0.5 0h0.5 0.5c0.1 0.1 0.1 0.2 0.1 0.3v1.9 0.3c0 0.2 0.2 0.3 0.4 0.4 0.2 0 0.4 0 0.7-0.2v-0.3-2-0.4c0.3-0.1 0.6 0 0.8 0h0.8c0.1 0.1 0.1 0.3 0.1 0.4v2.6 3.7c0.1 0 0.1 0.1 0.1 0.3z"/>
			<path class="st2" d="m91.5 30.2v1.6h-0.2-1.5c-0.2 0-0.3 0-0.5-0.1s-0.3-0.1-0.5-0.1c-0.4 0-0.7 0-1.1-0.1h-1-1.1c-1 0-2.1 0-3.1-0.1h-0.7-0.5-1c-0.2-0.4-0.2-0.9 0-1.3h0.2 0.3 10.1c0.2 0 0.4 0 0.6 0.1z"/>
			<path class="st2" d="m48.3 3.8c-0.1-0.3-0.1-0.9 0-1.3h0.2 3.7 0.2c0.1 0.3 0.1 0.9 0 1.3-0.2 0.1-0.4 0-0.6 0h-0.6v0.3 1.5 3.5 0.4c-0.3 0.1-1.1 0.1-1.5 0v-0.4-4.8-0.4-0.2c-0.6 0.1-1 0.2-1.4 0.1z"/>
			<path class="st2" d="m80.8 9.7h-1.5c-0.1-0.2 0-0.3 0-0.5v-4.9-0.4c-0.5-0.1-0.9 0-1.3-0.1-0.1-0.3-0.1-0.9 0-1.3h3.9 0.2c0.1 0.2 0 0.4 0 0.7v0.6c-0.4 0.1-0.8 0-1.2 0v0.2 0.4 4.7c-0.1 0.3-0.1 0.4-0.1 0.6z"/>
			<path class="st2" d="m71.4 31.5v-1.3h0.2 3.9l0.4 0.4c0 0.3 0.1 0.6 0 0.9h-0.3-2-1.8-0.4z"/>
			<path class="st0" d="m55.5 13.2c0.1 0.1 0 0.1 0 0.1v-0.1z"/>
			<path class="st0" d="m79 12.7v0 0z"/>
			<path class="st0" d="m42.2 20.1z"/>
			<path class="st0" d="m51.7 21.1z"/>
			<path class="st0" d="m64.5 28.9c-0.1 0.1-0.1 0.1 0 0h-0.1 0.1c-0.1 0-0.1 0 0 0z"/>
</svg>
